<?xml version="1.0" encoding="UTF-8"?>
<svg width="752pt" height="752pt" version="1.1" viewBox="0 0 752 752" xmlns="http://www.w3.org/2000/svg">
 <g>
  <path d="m242.81 228.01c0-8.1758 6.625-14.801 14.797-14.801h177.59v44.398c0 8.1758 6.625 14.801 14.801 14.801h59.195v44.398h29.598v-59.199c0-4.4961-2.043-8.7461-5.5508-11.555l-74-59.199c-2.6211-2.0977-5.8828-3.2422-9.2422-3.2422h-192.39c-24.52 0-44.398 19.879-44.398 44.398v88.797h29.602z"/>
  <path d="m213.21 346.4c-24.52 0-44.398 19.879-44.398 44.398v133.2c0 24.52 19.879 44.398 44.398 44.398h325.59c24.523 0 44.398-19.879 44.398-44.398v-133.2c0-24.52-19.875-44.398-44.398-44.398h-48.098c-5.3438 0-10.277 2.8828-12.898 7.543l-24.809 44.113c-2.6211 4.6562-7.5547 7.543-12.902 7.543h-128.17c-5.3438 0-10.277-2.8867-12.898-7.543l-24.812-44.113c-2.6211-4.6602-7.5508-7.543-12.898-7.543zm111 103.6c-20.434 0-37 16.562-37 36.996s16.566 37 37 37h103.6c20.434 0 36.996-16.566 36.996-37s-16.562-36.996-36.996-36.996z" fill-rule="evenodd"/>
 </g>
</svg>
